<?xml version="1.0" encoding="UTF-8" standalone="no"?>
<svg
   xmlns:dc="http://purl.org/dc/elements/1.1/"
   xmlns:cc="http://creativecommons.org/ns#"
   xmlns:rdf="http://www.w3.org/1999/02/22-rdf-syntax-ns#"
   xmlns:svg="http://www.w3.org/2000/svg"
   xmlns="http://www.w3.org/2000/svg"
   xmlns:sodipodi="http://sodipodi.sourceforge.net/DTD/sodipodi-0.dtd"
   xmlns:inkscape="http://www.inkscape.org/namespaces/inkscape"
   width="297mm"
   height="120mm"
   viewBox="0 0 297 120"
   version="1.1"
   id="svg8"
   inkscape:version="1.0.2 (e86c870879, 2021-01-15)"
   sodipodi:docname="bannertoni.svg"
   inkscape:export-filename="/home/toni-dev/toni.png"
   inkscape:export-xdpi="96"
   inkscape:export-ydpi="96">
  <defs
     id="defs2">
    <rect
       x="39.089615"
       y="70.147392"
       width="262.02325"
       height="108.9804"
       id="rect2053" />
    <rect
       x="31.491636"
       y="62.631798"
       width="244.13887"
       height="84.37809"
       id="rect2047" />
    <rect
       x="18.555244"
       y="58.809807"
       width="258.75351"
       height="60.202179"
       id="rect2041" />
    <rect
       x="40.331913"
       y="47.925808"
       width="229.2729"
       height="59.161087"
       id="rect2035" />
  </defs>
  <sodipodi:namedview
     id="base"
     pagecolor="#040404"
     bordercolor="#666666"
     borderopacity="1.0"
     inkscape:pageopacity="0"
     inkscape:pageshadow="2"
     inkscape:zoom="0.57875767"
     inkscape:cx="552.30514"
     inkscape:cy="144.10705"
     inkscape:document-units="mm"
     inkscape:current-layer="layer8"
     inkscape:document-rotation="0"
     showgrid="false"
     height="180mm"
     inkscape:window-width="1342"
     inkscape:window-height="676"
     inkscape:window-x="0"
     inkscape:window-y="27"
     inkscape:window-maximized="0" />
  <metadata
     id="metadata5">
    <rdf:RDF>
      <cc:Work
         rdf:about="">
        <dc:format>image/svg+xml</dc:format>
        <dc:type
           rdf:resource="http://purl.org/dc/dcmitype/StillImage" />
        <dc:title></dc:title>
      </cc:Work>
    </rdf:RDF>
  </metadata>
  <g
     inkscape:groupmode="layer"
     id="layer8"
     inkscape:label="background">
    <rect
       style="opacity:1;fill:#0f0f0f;fill-opacity:1;stroke:#ffffff;stroke-width:0;stroke-linecap:round;stroke-miterlimit:4;stroke-dasharray:none;stroke-opacity:1"
       id="rect2670"
       width="300.60303"
       height="122.4617"
       x="-0.16617435"
       y="-0.200104" />
  </g>
  <g
     inkscape:groupmode="layer"
     id="layer7"
     inkscape:label="letras">
    <g
       aria-label="ANTONIO AVILES "
       transform="translate(-16.4914,-24.302306)"
       id="text2033"
       style="font-style:normal;font-variant:normal;font-weight:normal;font-stretch:normal;font-size:22.5778px;line-height:1.25;font-family:Poppins;-inkscape-font-specification:Poppins;white-space:pre;shape-inside:url(#rect2035);display:inline;fill:#f2f2f2;fill-opacity:1;stroke:none">
      <path
         d="m 49.098565,65.335383 h -4.903614 l -0.81139,2.345974 h -2.592918 l 4.427364,-12.329592 h 2.875141 l 4.427364,12.329592 h -2.610558 z m -0.670278,-1.975557 -1.781529,-5.150559 -1.781529,5.150559 z"
         style="font-size:17.6389px;fill:#f2f2f2;fill-opacity:1"
         id="path2205" />
      <path
         d="m 64.708985,67.681357 h -2.469446 l -5.591531,-8.449034 v 8.449034 H 54.178561 V 55.351765 h 2.469447 l 5.591531,8.466673 v -8.466673 h 2.469446 z"
         style="font-size:17.6389px;fill:#f2f2f2;fill-opacity:1"
         id="path2207" />
      <path
         d="M 75.521608,55.369404 V 57.3626 H 72.240773 V 67.681357 H 69.771327 V 57.3626 h -3.280836 v -1.993196 z"
         style="font-size:17.6389px;fill:#f2f2f2;fill-opacity:1"
         id="path2209" />
      <path
         d="m 83.035775,67.804829 q -1.728612,0 -3.175002,-0.811389 -1.44639,-0.81139 -2.293057,-2.240141 -0.846667,-1.446389 -0.846667,-3.263196 0,-1.799168 0.846667,-3.227919 0.846667,-1.44639 2.293057,-2.257779 1.44639,-0.81139 3.175002,-0.81139 1.746251,0 3.175002,0.81139 1.44639,0.811389 2.275419,2.257779 0.846667,1.428751 0.846667,3.227919 0,1.816807 -0.846667,3.263196 -0.829029,1.428751 -2.275419,2.240141 -1.446389,0.811389 -3.175002,0.811389 z m 0,-2.204862 q 1.111251,0 1.957918,-0.49389 0.846668,-0.511528 1.322918,-1.446389 0.47625,-0.934862 0.47625,-2.169585 0,-1.234723 -0.47625,-2.151946 -0.47625,-0.934862 -1.322918,-1.428751 -0.846667,-0.493889 -1.957918,-0.493889 -1.11125,0 -1.975557,0.493889 -0.846667,0.493889 -1.322917,1.428751 -0.47625,0.917223 -0.47625,2.151946 0,1.234723 0.47625,2.169585 0.47625,0.934861 1.322917,1.446389 0.864307,0.49389 1.975557,0.49389 z"
         style="font-size:17.6389px;fill:#f2f2f2;fill-opacity:1"
         id="path2211" />
      <path
         d="m 101.69773,67.681357 h -2.469446 l -5.591532,-8.449034 v 8.449034 H 91.167306 V 55.351765 h 2.469446 l 5.591532,8.466673 v -8.466673 h 2.469446 z"
         style="font-size:17.6389px;fill:#f2f2f2;fill-opacity:1"
         id="path2213" />
      <path
         d="m 106.60132,55.369404 v 12.311953 h -2.46944 V 55.369404 Z"
         style="font-size:17.6389px;fill:#f2f2f2;fill-opacity:1"
         id="path2215" />
      <path
         d="m 114.75049,67.804829 q -1.72861,0 -3.175,-0.811389 -1.44639,-0.81139 -2.29306,-2.240141 -0.84666,-1.446389 -0.84666,-3.263196 0,-1.799168 0.84666,-3.227919 0.84667,-1.44639 2.29306,-2.257779 1.44639,-0.81139 3.175,-0.81139 1.74625,0 3.17501,0.81139 1.44639,0.811389 2.27541,2.257779 0.84667,1.428751 0.84667,3.227919 0,1.816807 -0.84667,3.263196 -0.82902,1.428751 -2.27541,2.240141 -1.44639,0.811389 -3.17501,0.811389 z m 0,-2.204862 q 1.11125,0 1.95792,-0.49389 0.84667,-0.511528 1.32292,-1.446389 0.47625,-0.934862 0.47625,-2.169585 0,-1.234723 -0.47625,-2.151946 -0.47625,-0.934862 -1.32292,-1.428751 -0.84667,-0.493889 -1.95792,-0.493889 -1.11125,0 -1.97555,0.493889 -0.84667,0.493889 -1.32292,1.428751 -0.47625,0.917223 -0.47625,2.151946 0,1.234723 0.47625,2.169585 0.47625,0.934861 1.32292,1.446389 0.8643,0.49389 1.97555,0.49389 z"
         style="font-size:17.6389px;fill:#f2f2f2;fill-opacity:1"
         id="path2217" />
      <path
         d="m 134.62951,65.335383 h -4.90361 l -0.81139,2.345974 h -2.59292 l 4.42736,-12.329592 h 2.87514 l 4.42737,12.329592 h -2.61056 z m -0.67028,-1.975557 -1.78153,-5.150559 -1.78153,5.150559 z"
         style="font-size:17.6389px;fill:#f2f2f2;fill-opacity:1"
         id="path2219" />
      <path
         d="m 150.7691,55.369404 -4.51556,12.311953 h -2.99861 l -4.51556,-12.311953 h 2.64583 l 3.38667,9.78959 3.36903,-9.78959 z"
         style="font-size:17.6389px;fill:#f2f2f2;fill-opacity:1"
         id="path2221" />
      <path
         d="m 154.72018,55.369404 v 12.311953 h -2.46944 V 55.369404 Z"
         style="font-size:17.6389px;fill:#f2f2f2;fill-opacity:1"
         id="path2223" />
      <path
         d="m 159.6238,65.723439 h 4.05695 v 1.957918 h -6.52639 V 55.369404 h 2.46944 z"
         style="font-size:17.6389px;fill:#f2f2f2;fill-opacity:1"
         id="path2225" />
      <path
         d="m 167.72005,57.3626 v 3.086808 h 4.14514 v 1.957918 h -4.14514 v 3.263196 h 4.6743 v 2.010835 H 165.2506 V 55.351765 h 7.14375 V 57.3626 Z"
         style="font-size:17.6389px;fill:#f2f2f2;fill-opacity:1"
         id="path2227" />
      <path
         d="m 178.88546,67.804829 q -1.28764,0 -2.32833,-0.440972 -1.02306,-0.440973 -1.62278,-1.270001 -0.59972,-0.829028 -0.61736,-1.957918 h 2.64583 q 0.0529,0.758473 0.52917,1.199445 0.49389,0.440973 1.34056,0.440973 0.8643,0 1.35819,-0.405695 0.49389,-0.423334 0.49389,-1.093612 0,-0.546806 -0.33514,-0.899584 -0.33514,-0.352778 -0.84667,-0.546806 -0.49388,-0.211667 -1.37583,-0.458611 -1.19944,-0.352778 -1.95792,-0.687917 -0.74083,-0.352778 -1.28764,-1.040695 -0.52916,-0.705557 -0.52916,-1.869724 0,-1.093612 0.5468,-1.905001 0.54681,-0.81139 1.53459,-1.234723 0.98777,-0.440973 2.25778,-0.440973 1.905,0 3.0868,0.934862 1.19945,0.917223 1.32292,2.575279 h -2.71639 q -0.0353,-0.635 -0.54681,-1.040695 -0.49389,-0.423333 -1.32291,-0.423333 -0.7232,0 -1.16417,0.370417 -0.42333,0.370416 -0.42333,1.075973 0,0.493889 0.3175,0.829028 0.33513,0.3175 0.81139,0.529167 0.49388,0.194028 1.37583,0.458611 1.19944,0.352778 1.95792,0.705556 0.75847,0.352778 1.30528,1.058334 0.5468,0.705556 0.5468,1.852085 0,0.987778 -0.51153,1.834446 -0.51152,0.846667 -1.4993,1.358195 -0.98778,0.493889 -2.34598,0.493889 z"
         style="font-size:17.6389px;fill:#f2f2f2;fill-opacity:1"
         id="path2229" />
    </g>
    <g
       aria-label="Industrial engineer &amp;  full stack Developer"
       transform="translate(-15.714769,-14.572107)"
       id="text2051"
       style="font-style:normal;font-weight:normal;font-size:10.5833px;line-height:1.25;font-family:sans-serif;white-space:pre;shape-inside:url(#rect2053);display:inline;fill:#8f8c9c;fill-opacity:1;stroke:none">
      <path
         d="m 40.336279,72.124658 h 1.252637 v 9.25835 h -1.252637 z"
         style="font-size:12.7px;fill:#8f8c9c;fill-opacity:1"
         id="path2232" />
      <path
         d="m 49.805469,77.191016 v 4.191992 h -1.141016 v -4.154785 q 0,-0.985987 -0.384473,-1.475879 -0.384472,-0.489893 -1.153418,-0.489893 -0.923974,0 -1.457275,0.589111 -0.533301,0.589112 -0.533301,1.606104 v 3.925342 h -1.147217 v -6.945313 h 1.147217 v 1.079004 q 0.409278,-0.626318 0.961182,-0.936377 0.558105,-0.310058 1.283642,-0.310058 1.196827,0 1.810743,0.74414 0.613916,0.73794 0.613916,2.176612 z"
         style="font-size:12.7px;fill:#8f8c9c;fill-opacity:1"
         id="path2234" />
      <path
         d="m 56.651562,75.491894 v -3.75791 h 1.141015 v 9.649024 h -1.141015 v -1.041797 q -0.359668,0.620117 -0.911573,0.923974 -0.545703,0.297657 -1.314648,0.297657 -1.258838,0 -2.052588,-1.00459 -0.787549,-1.00459 -0.787549,-2.641699 0,-1.63711 0.787549,-2.6417 0.79375,-1.004589 2.052588,-1.004589 0.768945,0 1.314648,0.303857 0.551905,0.297656 0.911573,0.917773 z m -3.888135,2.424659 q 0,1.258837 0.514697,1.978173 0.520899,0.713135 1.42627,0.713135 0.905371,0 1.426269,-0.713135 0.520899,-0.719336 0.520899,-1.978173 0,-1.258838 -0.520899,-1.971973 -0.520898,-0.719336 -1.426269,-0.719336 -0.905371,0 -1.42627,0.719336 -0.514697,0.713135 -0.514697,1.971973 z"
         style="font-size:12.7px;fill:#8f8c9c;fill-opacity:1"
         id="path2236" />
      <path
         d="m 60.024999,78.64209 v -4.204395 h 1.141016 v 4.160987 q 0,0.985986 0.384472,1.48208 0.384473,0.489892 1.153418,0.489892 0.923975,0 1.457276,-0.589111 0.539502,-0.589111 0.539502,-1.606104 v -3.937744 h 1.141015 v 6.945313 h -1.141015 v -1.066602 q -0.415479,0.63252 -0.967383,0.942578 -0.545703,0.303858 -1.27124,0.303858 -1.196826,0 -1.816944,-0.744141 -0.620117,-0.744141 -0.620117,-2.176611 z"
         style="font-size:12.7px;fill:#8f8c9c;fill-opacity:1"
         id="path2238" />
      <path
         d="m 72.61958,74.642334 v 1.079004 q -0.483691,-0.248047 -1.00459,-0.372071 -0.520898,-0.124023 -1.079004,-0.124023 -0.84956,0 -1.277441,0.260449 -0.42168,0.260449 -0.42168,0.781348 0,0.396875 0.303858,0.626318 0.303857,0.223242 1.22163,0.427881 l 0.390674,0.08682 q 1.21543,0.260449 1.723926,0.737939 0.514697,0.471289 0.514697,1.32085 0,0.967382 -0.768945,1.531689 -0.762744,0.564307 -2.102197,0.564307 -0.558106,0 -1.165821,-0.111621 -0.601513,-0.10542 -1.27124,-0.322461 V 79.95054 q 0.63252,0.328662 1.246436,0.496094 0.613916,0.16123 1.215429,0.16123 0.806153,0 1.240235,-0.272851 0.434082,-0.279053 0.434082,-0.781348 0,-0.465088 -0.31626,-0.713135 -0.310059,-0.248047 -1.370459,-0.47749 l -0.396875,-0.09302 q -1.0604,-0.223242 -1.531689,-0.682128 -0.471289,-0.465088 -0.471289,-1.271241 0,-0.979785 0.694531,-1.513086 0.694531,-0.5333 1.971972,-0.5333 0.63252,0 1.190625,0.09302 0.558106,0.09302 1.029395,0.279053 z"
         style="font-size:12.7px;fill:#8f8c9c;fill-opacity:1"
         id="path2240" />
      <path
         d="m 75.937206,72.465723 v 1.971972 h 2.350244 v 0.886768 h -2.350244 v 3.770312 q 0,0.849561 0.229444,1.091406 0.235644,0.241846 0.948779,0.241846 h 1.172021 v 0.954981 h -1.172021 q -1.32085,0 -1.823145,-0.489893 -0.502295,-0.496094 -0.502295,-1.79834 v -3.770312 h -0.837158 v -0.886768 h 0.837158 v -1.971972 z"
         style="font-size:12.7px;fill:#8f8c9c;fill-opacity:1"
         id="path2242" />
      <path
         d="m 83.812695,75.504297 q -0.192236,-0.111621 -0.421679,-0.161231 -0.223243,-0.05581 -0.496094,-0.05581 -0.967383,0 -1.488281,0.632519 -0.514698,0.626319 -0.514698,1.804541 v 3.658692 h -1.147216 v -6.945313 h 1.147216 v 1.079004 q 0.359668,-0.632519 0.936377,-0.936377 0.576709,-0.310058 1.401465,-0.310058 0.117822,0 0.260449,0.0186 0.142627,0.0124 0.31626,0.04341 z"
         style="font-size:12.7px;fill:#8f8c9c;fill-opacity:1"
         id="path2244" />
      <path
         d="m 85.009521,74.437695 h 1.141015 v 6.945313 h -1.141015 z m 0,-2.703711 h 1.141015 v 1.444873 h -1.141015 z"
         style="font-size:12.7px;fill:#8f8c9c;fill-opacity:1"
         id="path2246" />
      <path
         d="m 91.694382,77.891748 q -1.382861,0 -1.916162,0.31626 -0.5333,0.316259 -0.5333,1.079004 0,0.607714 0.396875,0.967382 0.403076,0.353467 1.091406,0.353467 0.948779,0 1.519287,-0.669726 0.576709,-0.675928 0.576709,-1.792139 v -0.254248 z m 2.27583,-0.471289 v 3.962549 h -1.141015 v -1.0542 q -0.390674,0.63252 -0.973584,0.936377 -0.58291,0.297657 -1.42627,0.297657 -1.066601,0 -1.699121,-0.595313 -0.626318,-0.601514 -0.626318,-1.606103 0,-1.172022 0.781348,-1.767334 0.787548,-0.595313 2.344043,-0.595313 h 1.599902 v -0.111621 q 0,-0.787549 -0.520899,-1.21543 -0.514697,-0.434082 -1.451074,-0.434082 -0.595312,0 -1.159619,0.142627 -0.564307,0.142627 -1.085205,0.427881 v -1.054199 q 0.626318,-0.241846 1.21543,-0.359668 0.589111,-0.124023 1.147216,-0.124023 1.506885,0 2.251026,0.781347 0.74414,0.781348 0.74414,2.368848 z"
         style="font-size:12.7px;fill:#8f8c9c;fill-opacity:1"
         id="path2248" />
      <path
         d="m 96.320457,71.733984 h 1.141015 v 9.649024 h -1.141015 z"
         style="font-size:12.7px;fill:#8f8c9c;fill-opacity:1"
         id="path2250" />
      <path
         d="m 109.82661,77.625098 v 0.558105 h -5.24619 q 0.0744,1.178223 0.70693,1.79834 0.63872,0.613916 1.77354,0.613916 0.65732,0 1.27124,-0.161231 0.62011,-0.16123 1.22783,-0.483691 v 1.079004 q -0.61392,0.260449 -1.25884,0.396875 -0.64492,0.136426 -1.30845,0.136426 -1.66191,0 -2.63549,-0.967383 -0.96739,-0.967383 -0.96739,-2.616895 0,-1.705322 0.91778,-2.703711 0.92397,-1.004589 2.48667,-1.004589 1.40146,0 2.21381,0.905371 0.81856,0.89917 0.81856,2.449463 z m -1.14102,-0.334864 q -0.0124,-0.936377 -0.5271,-1.494482 -0.50849,-0.558106 -1.35185,-0.558106 -0.95498,0 -1.53169,0.539502 -0.57051,0.539502 -0.65733,1.519287 z"
         style="font-size:12.7px;fill:#8f8c9c;fill-opacity:1"
         id="path2252" />
      <path
         d="m 117.47266,77.191016 v 4.191992 h -1.14102 v -4.154785 q 0,-0.985987 -0.38447,-1.475879 -0.38447,-0.489893 -1.15342,-0.489893 -0.92397,0 -1.45727,0.589111 -0.5333,0.589112 -0.5333,1.606104 v 3.925342 h -1.14722 v -6.945313 h 1.14722 v 1.079004 q 0.40927,-0.626318 0.96118,-0.936377 0.5581,-0.310058 1.28364,-0.310058 1.19683,0 1.81074,0.74414 0.61392,0.73794 0.61392,2.176612 z"
         style="font-size:12.7px;fill:#8f8c9c;fill-opacity:1"
         id="path2254" />
      <path
         d="m 124.31875,77.829736 q 0,-1.240234 -0.5147,-1.922363 -0.50849,-0.682129 -1.43247,-0.682129 -0.91777,0 -1.43247,0.682129 -0.5085,0.682129 -0.5085,1.922363 0,1.234033 0.5085,1.916162 0.5147,0.682129 1.43247,0.682129 0.92398,0 1.43247,-0.682129 0.5147,-0.682129 0.5147,-1.916162 z m 1.14101,2.691309 q 0,1.773535 -0.78754,2.635498 -0.78755,0.868164 -2.41226,0.868164 -0.60151,0 -1.13482,-0.09302 -0.5333,-0.08682 -1.03559,-0.272851 v -1.11001 q 0.50229,0.272851 0.99219,0.403076 0.48989,0.130225 0.99839,0.130225 1.12241,0 1.68051,-0.589112 0.55811,-0.58291 0.55811,-1.767334 v -0.564306 q -0.35347,0.613916 -0.90537,0.917773 -0.55191,0.303858 -1.32085,0.303858 -1.27744,0 -2.05879,-0.973584 -0.78135,-0.973584 -0.78135,-2.579688 0,-1.612304 0.78135,-2.585888 0.78135,-0.973584 2.05879,-0.973584 0.76894,0 1.32085,0.303857 0.5519,0.303857 0.90537,0.917773 v -1.054199 h 1.14101 z"
         style="font-size:12.7px;fill:#8f8c9c;fill-opacity:1"
         id="path2256" />
      <path
         d="m 127.81001,74.437695 h 1.14101 v 6.945313 h -1.14101 z m 0,-2.703711 h 1.14101 v 1.444873 h -1.14101 z"
         style="font-size:12.7px;fill:#8f8c9c;fill-opacity:1"
         id="path2258" />
      <path
         d="m 137.11176,77.191016 v 4.191992 h -1.14101 v -4.154785 q 0,-0.985987 -0.38447,-1.475879 -0.38448,-0.489893 -1.15342,-0.489893 -0.92398,0 -1.45728,0.589111 -0.5333,0.589112 -0.5333,1.606104 v 3.925342 h -1.14721 v -6.945313 h 1.14721 v 1.079004 q 0.40928,-0.626318 0.96118,-0.936377 0.55811,-0.310058 1.28365,-0.310058 1.19682,0 1.81074,0.74414 0.61391,0.73794 0.61391,2.176612 z"
         style="font-size:12.7px;fill:#8f8c9c;fill-opacity:1"
         id="path2260" />
      <path
         d="m 145.32832,77.625098 v 0.558105 h -5.24619 q 0.0744,1.178223 0.70693,1.79834 0.63872,0.613916 1.77354,0.613916 0.65732,0 1.27124,-0.161231 0.62012,-0.16123 1.22783,-0.483691 v 1.079004 q -0.61391,0.260449 -1.25884,0.396875 -0.64492,0.136426 -1.30844,0.136426 -1.66192,0 -2.6355,-0.967383 -0.96738,-0.967383 -0.96738,-2.616895 0,-1.705322 0.91777,-2.703711 0.92397,-1.004589 2.48667,-1.004589 1.40146,0 2.21382,0.905371 0.81855,0.89917 0.81855,2.449463 z m -1.14101,-0.334864 q -0.0124,-0.936377 -0.5271,-1.494482 -0.5085,-0.558106 -1.35186,-0.558106 -0.95498,0 -1.53169,0.539502 -0.57051,0.539502 -0.65732,1.519287 z"
         style="font-size:12.7px;fill:#8f8c9c;fill-opacity:1"
         id="path2262" />
      <path
         d="m 153.1418,77.625098 v 0.558105 h -5.24619 q 0.0744,1.178223 0.70693,1.79834 0.63872,0.613916 1.77354,0.613916 0.65732,0 1.27124,-0.161231 0.62011,-0.16123 1.22783,-0.483691 v 1.079004 q -0.61392,0.260449 -1.25884,0.396875 -0.64492,0.136426 -1.30845,0.136426 -1.66191,0 -2.6355,-0.967383 -0.96738,-0.967383 -0.96738,-2.616895 0,-1.705322 0.91778,-2.703711 0.92397,-1.004589 2.48667,-1.004589 1.40146,0 2.21381,0.905371 0.81856,0.89917 0.81856,2.449463 z m -1.14102,-0.334864 q -0.0124,-0.936377 -0.5271,-1.494482 -0.50849,-0.558106 -1.35185,-0.558106 -0.95498,0 -1.53169,0.539502 -0.57051,0.539502 -0.65733,1.519287 z"
         style="font-size:12.7px;fill:#8f8c9c;fill-opacity:1"
         id="path2264" />
      <path
         d="m 159.03911,75.504297 q -0.19223,-0.111621 -0.42168,-0.161231 -0.22324,-0.05581 -0.49609,-0.05581 -0.96738,0 -1.48828,0.632519 -0.5147,0.626319 -0.5147,1.804541 v 3.658692 h -1.14722 v -6.945313 h 1.14722 v 1.079004 q 0.35967,-0.632519 0.93638,-0.936377 0.57671,-0.310058 1.40146,-0.310058 0.11782,0 0.26045,0.0186 0.14263,0.0124 0.31626,0.04341 z"
         style="font-size:12.7px;fill:#8f8c9c;fill-opacity:1"
         id="path2266" />
      <path
         d="m 166.16426,76.403467 q -0.56431,0.502295 -0.83096,1.00459 -0.26045,0.496093 -0.26045,1.041796 0,0.905371 0.65732,1.506885 0.65733,0.601514 1.64952,0.601514 0.58911,0 1.1038,-0.192237 0.5147,-0.198437 0.96739,-0.595312 z m 0.87436,-0.694532 3.1502,3.22461 q 0.36587,-0.551904 0.5705,-1.178223 0.20464,-0.632519 0.24185,-1.339453 h 1.15342 q -0.0744,0.818555 -0.39688,1.618506 -0.32246,0.799951 -0.89917,1.581299 l 1.73013,1.767334 h -1.5627 l -0.88676,-0.911573 q -0.64492,0.551905 -1.35186,0.824756 -0.70693,0.266651 -1.51929,0.266651 -1.49448,0 -2.44326,-0.849561 -0.94878,-0.855762 -0.94878,-2.189014 0,-0.79375 0.41548,-1.488281 0.41548,-0.700732 1.24644,-1.314648 -0.29766,-0.390674 -0.45269,-0.775147 -0.15503,-0.390673 -0.15503,-0.762744 0,-1.00459 0.68833,-1.612304 0.68833,-0.613916 1.82935,-0.613916 0.5147,0 1.02319,0.111621 0.5147,0.111621 1.0418,0.334863 v 1.128613 q -0.5395,-0.291455 -1.0294,-0.440283 -0.48989,-0.155029 -0.91157,-0.155029 -0.65112,0 -1.0604,0.347265 -0.40307,0.341065 -0.40307,0.886768 0,0.31626 0.17983,0.638721 0.18603,0.316259 0.75034,0.899169 z"
         style="font-size:12.7px;fill:#8f8c9c;fill-opacity:1"
         id="path2268" />
      <path
         d="m 43.802734,87.608984 v 0.94878 h -1.091406 q -0.613916,0 -0.855762,0.248047 -0.235644,0.248046 -0.235644,0.892968 v 0.613916 h 1.878955 v 0.886768 h -1.878955 v 6.058545 h -1.147217 v -6.058545 h -1.091406 v -0.886768 h 1.091406 v -0.483691 q 0,-1.159619 0.539502,-1.686719 0.539502,-0.533301 1.711523,-0.533301 z"
         style="font-size:12.7px;fill:#8f8c9c;fill-opacity:1"
         id="path2270" />
      <path
         d="m 44.639893,94.51709 v -4.204395 h 1.141015 v 4.160987 q 0,0.985986 0.384473,1.48208 0.384473,0.489892 1.153418,0.489892 0.923974,0 1.457275,-0.589111 0.539502,-0.589111 0.539502,-1.606104 v -3.937744 h 1.141016 v 6.945313 h -1.141016 v -1.066602 q -0.415478,0.63252 -0.967383,0.942578 -0.545703,0.303858 -1.27124,0.303858 -1.196826,0 -1.816943,-0.744141 -0.620117,-0.744141 -0.620117,-2.176611 z"
         style="font-size:12.7px;fill:#8f8c9c;fill-opacity:1"
         id="path2272" />
      <path
         d="m 52.806836,87.608984 h 1.141016 v 9.649024 h -1.141016 z"
         style="font-size:12.7px;fill:#8f8c9c;fill-opacity:1"
         id="path2274" />
      <path
         d="m 56.335303,87.608984 h 1.141016 v 9.649024 h -1.141016 z"
         style="font-size:12.7px;fill:#8f8c9c;fill-opacity:1"
         id="path2276" />
      <path
         d="m 68.32837,90.517334 v 1.079004 q -0.483692,-0.248047 -1.00459,-0.372071 -0.520898,-0.124023 -1.079004,-0.124023 -0.84956,0 -1.277441,0.260449 -0.42168,0.260449 -0.42168,0.781348 0,0.396875 0.303857,0.626318 0.303858,0.223242 1.221631,0.427881 l 0.390674,0.08682 q 1.21543,0.260449 1.723926,0.737939 0.514697,0.471289 0.514697,1.32085 0,0.967382 -0.768945,1.531689 -0.762744,0.564307 -2.102197,0.564307 -0.558106,0 -1.165821,-0.111621 -0.601513,-0.10542 -1.27124,-0.322461 V 95.82554 q 0.63252,0.328662 1.246436,0.496094 0.613916,0.16123 1.215429,0.16123 0.806153,0 1.240235,-0.272851 0.434082,-0.279053 0.434082,-0.781348 0,-0.465088 -0.31626,-0.713135 Q 66.9021,94.46748 65.8417,94.238037 l -0.396875,-0.09302 q -1.0604,-0.223242 -1.531689,-0.682128 -0.47129,-0.465088 -0.47129,-1.271241 0,-0.979785 0.694532,-1.513086 0.694531,-0.5333 1.971972,-0.5333 0.63252,0 1.190625,0.09302 0.558106,0.09302 1.029395,0.279052 z"
         style="font-size:12.7px;fill:#8f8c9c;fill-opacity:1"
         id="path2278" />
      <path
         d="m 71.645996,88.340723 v 1.971972 h 2.350244 v 0.886768 h -2.350244 v 3.770312 q 0,0.849561 0.229443,1.091406 0.235645,0.241846 0.94878,0.241846 h 1.172021 v 0.954981 h -1.172021 q -1.32085,0 -1.823145,-0.489893 -0.502295,-0.496094 -0.502295,-1.79834 v -3.770312 h -0.837158 v -0.886768 h 0.837158 v -1.971972 z"
         style="font-size:12.7px;fill:#8f8c9c;fill-opacity:1"
         id="path2280" />
      <path
         d="m 78.653321,93.766748 q -1.382861,0 -1.916162,0.31626 -0.533301,0.316259 -0.533301,1.079004 0,0.607714 0.396875,0.967382 0.403076,0.353467 1.091406,0.353467 0.94878,0 1.519287,-0.669726 0.576709,-0.675928 0.576709,-1.792139 v -0.254248 z m 2.27583,-0.471289 v 3.962549 h -1.141016 v -1.0542 q -0.390673,0.63252 -0.973584,0.936377 -0.58291,0.297657 -1.426269,0.297657 -1.066602,0 -1.699121,-0.595313 -0.626318,-0.601514 -0.626318,-1.606103 0,-1.172022 0.781347,-1.767334 0.787549,-0.595313 2.344043,-0.595313 h 1.599902 v -0.111621 q 0,-0.787549 -0.520898,-1.21543 -0.514697,-0.434082 -1.451074,-0.434082 -0.595313,0 -1.159619,0.142627 -0.564307,0.142627 -1.085205,0.427881 v -1.054199 q 0.626318,-0.241846 1.215429,-0.359668 0.589112,-0.124023 1.147217,-0.124023 1.506885,0 2.251025,0.781347 0.744141,0.781348 0.744141,2.368848 z"
         style="font-size:12.7px;fill:#8f8c9c;fill-opacity:1"
         id="path2282" />
      <path
         d="m 88.27754,90.579346 v 1.066601 q -0.483692,-0.26665 -0.973584,-0.396875 -0.483692,-0.136426 -0.979785,-0.136426 -1.11001,0 -1.723926,0.706934 -0.613916,0.700732 -0.613916,1.971973 0,1.27124 0.613916,1.978173 0.613916,0.700733 1.723926,0.700733 0.496093,0 0.979785,-0.130225 0.489892,-0.136426 0.973584,-0.403076 v 1.054199 q -0.47749,0.223242 -0.992188,0.334864 -0.508496,0.111621 -1.085205,0.111621 -1.568896,0 -2.492871,-0.985987 -0.923974,-0.985986 -0.923974,-2.660302 0,-1.699121 0.930175,-2.672705 0.936377,-0.973584 2.561084,-0.973584 0.5271,0 1.029395,0.111621 0.502295,0.10542 0.973584,0.322461 z"
         style="font-size:12.7px;fill:#8f8c9c;fill-opacity:1"
         id="path2284" />
      <path
         d="m 90.218504,87.608984 h 1.147217 v 5.698877 l 3.404443,-2.995166 h 1.457276 l -3.683496,3.249414 3.838525,3.695899 h -1.488281 l -3.528467,-3.392041 v 3.392041 h -1.147217 z"
         style="font-size:12.7px;fill:#8f8c9c;fill-opacity:1"
         id="path2286" />
      <path
         d="m 102.95571,89.029053 v 7.19956 h 1.51309 q 1.91616,0 2.80293,-0.868164 0.89297,-0.868164 0.89297,-2.740918 0,-1.860351 -0.89297,-2.722314 -0.88677,-0.868164 -2.80293,-0.868164 z m -1.25263,-1.029395 h 2.57348 q 2.69131,0 3.95015,1.122412 1.25884,1.116211 1.25884,3.497461 0,2.393652 -1.26504,3.516065 -1.26504,1.122412 -3.94395,1.122412 h -2.57348 z"
         style="font-size:12.7px;fill:#8f8c9c;fill-opacity:1"
         id="path2288" />
      <path
         d="m 117.37343,93.500098 v 0.558105 h -5.24619 q 0.0744,1.178223 0.70694,1.79834 0.63872,0.613916 1.77353,0.613916 0.65733,0 1.27124,-0.161231 0.62012,-0.16123 1.22783,-0.483691 v 1.079004 q -0.61391,0.260449 -1.25883,0.396875 -0.64493,0.136426 -1.30845,0.136426 -1.66192,0 -2.6355,-0.967383 -0.96738,-0.967383 -0.96738,-2.616895 0,-1.705322 0.91777,-2.703711 0.92398,-1.004589 2.48667,-1.004589 1.40147,0 2.21382,0.905371 0.81855,0.89917 0.81855,2.449463 z m -1.14101,-0.334864 q -0.0124,-0.936377 -0.5271,-1.494482 -0.5085,-0.558106 -1.35186,-0.558106 -0.95498,0 -1.53169,0.539502 -0.5705,0.539502 -0.65732,1.519287 z"
         style="font-size:12.7px;fill:#8f8c9c;fill-opacity:1"
         id="path2290" />
      <path
         d="m 118.42763,90.312695 h 1.20923 l 2.17041,5.829102 2.17041,-5.829102 h 1.20923 l -2.60449,6.945313 h -1.55029 z"
         style="font-size:12.7px;fill:#8f8c9c;fill-opacity:1"
         id="path2292" />
      <path
         d="m 132.70273,93.500098 v 0.558105 h -5.24619 q 0.0744,1.178223 0.70694,1.79834 0.63872,0.613916 1.77353,0.613916 0.65733,0 1.27124,-0.161231 0.62012,-0.16123 1.22783,-0.483691 v 1.079004 q -0.61391,0.260449 -1.25883,0.396875 -0.64493,0.136426 -1.30845,0.136426 -1.66192,0 -2.6355,-0.967383 -0.96738,-0.967383 -0.96738,-2.616895 0,-1.705322 0.91777,-2.703711 0.92398,-1.004589 2.48667,-1.004589 1.40147,0 2.21382,0.905371 0.81855,0.89917 0.81855,2.449463 z m -1.14101,-0.334864 q -0.0124,-0.936377 -0.5271,-1.494482 -0.5085,-0.558106 -1.35186,-0.558106 -0.95498,0 -1.53169,0.539502 -0.5705,0.539502 -0.65732,1.519287 z"
         style="font-size:12.7px;fill:#8f8c9c;fill-opacity:1"
         id="path2294" />
      <path
         d="m 134.57549,87.608984 h 1.14101 v 9.649024 h -1.14101 z"
         style="font-size:12.7px;fill:#8f8c9c;fill-opacity:1"
         id="path2296" />
      <path
         d="m 140.79526,91.112646 q -0.91777,0 -1.45107,0.719336 -0.5333,0.713135 -0.5333,1.959571 0,1.246435 0.5271,1.965771 0.5333,0.713135 1.45727,0.713135 0.91157,0 1.44488,-0.719336 0.5333,-0.719336 0.5333,-1.95957 0,-1.234034 -0.5333,-1.953369 -0.53331,-0.725538 -1.44488,-0.725538 z m 0,-0.967382 q 1.48828,0 2.33784,0.967382 0.84956,0.967383 0.84956,2.678907 0,1.705322 -0.84956,2.678906 -0.84956,0.967383 -2.33784,0.967383 -1.49448,0 -2.34404,-0.967383 -0.84336,-0.973584 -0.84336,-2.678906 0,-1.711524 0.84336,-2.678907 0.84956,-0.967382 2.34404,-0.967382 z"
         style="font-size:12.7px;fill:#8f8c9c;fill-opacity:1"
         id="path2298" />
      <path
         d="m 146.97784,96.216211 v 3.683496 h -1.14722 v -9.587012 h 1.14722 v 1.054199 q 0.35966,-0.620117 0.90537,-0.917773 0.5519,-0.303857 1.31464,-0.303857 1.26504,0 2.05259,1.004589 0.79375,1.00459 0.79375,2.6417 0,1.637109 -0.79375,2.641699 -0.78755,1.00459 -2.05259,1.00459 -0.76274,0 -1.31464,-0.297657 -0.54571,-0.303857 -0.90537,-0.923974 z m 3.88193,-2.424658 q 0,-1.258838 -0.5209,-1.971973 -0.5147,-0.719336 -1.42007,-0.719336 -0.90537,0 -1.42627,0.719336 -0.51469,0.713135 -0.51469,1.971973 0,1.258837 0.51469,1.978173 0.5209,0.713135 1.42627,0.713135 0.90537,0 1.42007,-0.713135 0.5209,-0.719336 0.5209,-1.978173 z"
         style="font-size:12.7px;fill:#8f8c9c;fill-opacity:1"
         id="path2300" />
      <path
         d="m 159.87627,93.500098 v 0.558105 h -5.24619 q 0.0744,1.178223 0.70693,1.79834 0.63873,0.613916 1.77354,0.613916 0.65732,0 1.27124,-0.161231 0.62012,-0.16123 1.22783,-0.483691 v 1.079004 q -0.61391,0.260449 -1.25884,0.396875 -0.64492,0.136426 -1.30844,0.136426 -1.66192,0 -2.6355,-0.967383 -0.96738,-0.967383 -0.96738,-2.616895 0,-1.705322 0.91777,-2.703711 0.92397,-1.004589 2.48667,-1.004589 1.40146,0 2.21382,0.905371 0.81855,0.89917 0.81855,2.449463 z m -1.14101,-0.334864 q -0.0124,-0.936377 -0.5271,-1.494482 -0.5085,-0.558106 -1.35186,-0.558106 -0.95498,0 -1.53169,0.539502 -0.57051,0.539502 -0.65732,1.519287 z"
         style="font-size:12.7px;fill:#8f8c9c;fill-opacity:1"
         id="path2302" />
      <path
         d="m 165.77359,91.379297 q -0.19224,-0.111621 -0.42168,-0.161231 -0.22324,-0.05581 -0.4961,-0.05581 -0.96738,0 -1.48828,0.632519 -0.51469,0.626319 -0.51469,1.804541 v 3.658692 h -1.14722 v -6.945313 h 1.14722 v 1.079004 q 0.35966,-0.632519 0.93637,-0.936377 0.57671,-0.310058 1.40147,-0.310058 0.11782,0 0.26045,0.0186 0.14262,0.0124 0.31626,0.04341 z"
         style="font-size:12.7px;fill:#8f8c9c;fill-opacity:1"
         id="path2304" />
    </g>
  </g>
  <g
     inkscape:groupmode="layer"
     id="layer2"
     inkscape:label="logo"
     style="display:none;opacity:1">
    <path
       style="fill:none;stroke:#000000;stroke-width:0.264583px;stroke-linecap:butt;stroke-linejoin:miter;stroke-opacity:1"
       d="m 152.11257,92.62316 -0.54062,-15.220547 -40.76032,-22.196835 -13.077129,8.140195 0.27794,15.325918 13.541579,7.48822 0.35237,15.118039 13.52731,7.48721"
       id="path850"
       sodipodi:nodetypes="cccccccc" />
    <path
       style="fill:none;stroke:#000000;stroke-width:0.264583px;stroke-linecap:butt;stroke-linejoin:miter;stroke-opacity:1"
       d="m 110.28246,54.676611 c 0,0 0,0 0,0 z"
       id="path852" />
    <path
       style="fill:none;stroke:#000000;stroke-width:0.264583px;stroke-linecap:butt;stroke-linejoin:miter;stroke-opacity:1"
       d="m 152.11257,92.62316 -13.58774,7.86126 0.36458,15.80908"
       id="path854"
       sodipodi:nodetypes="ccc" />
    <path
       style="fill:none;stroke:#000000;stroke-width:0.264583px;stroke-linecap:butt;stroke-linejoin:miter;stroke-opacity:1"
       d="M 125.4337,108.76536 125.06957,85.6206"
       id="path856" />
    <path
       style="fill:none;stroke:#000000;stroke-width:0.264583px;stroke-linecap:butt;stroke-linejoin:miter;stroke-opacity:1"
       d="M 139.054,100.48442 98.012439,78.67189"
       id="path858"
       sodipodi:nodetypes="cc" />
    <path
       style="fill:none;stroke:#000000;stroke-width:0.264583px;stroke-linecap:butt;stroke-linejoin:miter;stroke-opacity:1"
       d="m 151.57195,77.402612 -13.29026,7.860162 0.24314,15.221646"
       id="path860"
       sodipodi:nodetypes="ccc" />
    <path
       style="fill:none;stroke:#000000;stroke-width:0.264583px;stroke-linecap:butt;stroke-linejoin:miter;stroke-opacity:1"
       d="m 125.4337,108.76536 13.6203,-8.28094"
       id="path862" />
  </g>
  <g
     inkscape:groupmode="layer"
     id="layer5"
     inkscape:label="lineart"
     style="mix-blend-mode:normal">
    <g
       id="g1382"
       transform="matrix(0.59893733,0,0,0.59893733,171.82219,0.07216291)">
      <path
         style="fill:none;stroke:#ffffff;stroke-width:0.4;stroke-linecap:butt;stroke-linejoin:miter;stroke-miterlimit:4;stroke-dasharray:none;stroke-opacity:1"
         d="m 124.38407,62.730305 13.17328,-8.118933 13.48741,7.545221 0.52719,15.246019 13.7278,7.239119 0.23698,15.369549 -13.07378,8.34824 0.41264,15.01996 -13.43058,7.83452 -13.67677,-7.3182 -13.06492,8.3468 -13.66963,-7.69767 -0.238368,-15.27703 -13.789189,-7.62394 -0.05925,-15.213428 13.065554,-7.758642 -0.47283,-15.345077 13.314523,-8.265125 z"
         id="path875" />
      <path
         style="fill:none;stroke:#ffffff;stroke-width:0.4;stroke-linecap:butt;stroke-linejoin:miter;stroke-miterlimit:4;stroke-dasharray:none;stroke-opacity:1"
         d="M 84.946883,86.430532 98.429555,93.829358 98.79532,109.2679"
         id="path877" />
      <path
         style="fill:none;stroke:#ffffff;stroke-width:0.4;stroke-linecap:butt;stroke-linejoin:miter;stroke-miterlimit:4;stroke-dasharray:none;stroke-opacity:1"
         d="m 112.70332,132.2426 -0.31513,-15.64432 13.04551,-7.83292 0.33454,15.13044"
         id="path879" />
      <path
         style="fill:none;stroke:#ffffff;stroke-width:0.4;stroke-linecap:butt;stroke-linejoin:miter;stroke-miterlimit:4;stroke-dasharray:none;stroke-opacity:1"
         d="m 111.90639,101.27815 -13.11107,7.98975 13.59287,7.33038"
         id="path881" />
      <path
         style="fill:none;stroke:#ffffff;stroke-width:0.4;stroke-linecap:butt;stroke-linejoin:miter;stroke-miterlimit:4;stroke-dasharray:none;stroke-opacity:1"
         d="M 98.429555,93.829356 111.55402,86.160109"
         id="path883" />
      <path
         style="fill:none;stroke:#ffffff;stroke-width:0.4;stroke-linecap:butt;stroke-linejoin:miter;stroke-miterlimit:4;stroke-dasharray:none;stroke-opacity:1"
         d="m 125.4337,108.76536 13.45571,7.52814 0.5556,14.9205"
         id="path885" />
      <path
         style="fill:none;stroke:#ffffff;stroke-width:0.4;stroke-linecap:butt;stroke-linejoin:miter;stroke-miterlimit:4;stroke-dasharray:none;stroke-opacity:1"
         d="m 138.88941,116.2935 13.57354,-7.93398 -0.35038,-15.73636"
         id="path887" />
      <path
         style="fill:none;stroke:#ffffff;stroke-width:0.4;stroke-linecap:butt;stroke-linejoin:miter;stroke-miterlimit:4;stroke-dasharray:none;stroke-opacity:1"
         d="m 152.11257,92.62316 13.18718,-7.981431"
         id="path889" />
      <path
         style="fill:none;stroke:#ffffff;stroke-width:0.4;stroke-linecap:butt;stroke-linejoin:miter;stroke-miterlimit:4;stroke-dasharray:none;stroke-opacity:1"
         d="m 151.04476,62.156593 -13.14097,7.822274"
         id="path891" />
      <path
         style="fill:none;stroke:#ffffff;stroke-width:0.4;stroke-linecap:butt;stroke-linejoin:miter;stroke-miterlimit:4;stroke-dasharray:none;stroke-opacity:1"
         d="m 152.46295,108.35952 -13.93812,-7.8751"
         id="path893" />
      <path
         style="fill:none;stroke:#ffffff;stroke-width:0.4;stroke-linecap:butt;stroke-linejoin:miter;stroke-miterlimit:4;stroke-dasharray:none;stroke-opacity:1"
         d="m 110.85413,55.061688 0.40203,15.67379 40.85641,21.887682"
         id="path909" />
      <path
         style="fill:none;stroke:#ffffff;stroke-width:0.4;stroke-linecap:butt;stroke-linejoin:miter;stroke-miterlimit:4;stroke-dasharray:none;stroke-opacity:1"
         d="m 124.38407,62.730305 0.71353,30.812269 -13.19121,7.735576 13.52731,7.48721 13.09113,-8.28094 -13.47723,-7.126441"
         id="path911" />
      <path
         style="fill:none;stroke:#ffffff;stroke-width:0.4;stroke-linecap:butt;stroke-linejoin:miter;stroke-miterlimit:4;stroke-dasharray:none;stroke-opacity:1"
         d="m 111.55402,86.160109 0.35237,15.118041"
         id="path913" />
      <path
         style="fill:none;stroke:#ffffff;stroke-width:0.4;stroke-linecap:butt;stroke-linejoin:miter;stroke-miterlimit:4;stroke-dasharray:none;stroke-opacity:1"
         d="m 98.012437,78.67189 13.541583,7.488219"
         id="path915" />
      <path
         style="fill:none;stroke:#ffffff;stroke-width:0.4;stroke-linecap:butt;stroke-linejoin:miter;stroke-miterlimit:4;stroke-dasharray:none;stroke-opacity:1"
         d="m 111.55402,86.160109 13.20917,-8.340254"
         id="path917" />
      <path
         style="fill:none;stroke:#ffffff;stroke-width:0.4;stroke-linecap:butt;stroke-linejoin:miter;stroke-miterlimit:4;stroke-dasharray:none;stroke-opacity:1"
         d="M 98.012437,78.67189 111.25616,70.735478"
         id="path919" />
      <path
         style="fill:none;stroke:#ffffff;stroke-width:0.4;stroke-linecap:butt;stroke-linejoin:miter;stroke-miterlimit:4;stroke-dasharray:none;stroke-opacity:1"
         d="m 124.38407,62.730305 13.51972,7.248562"
         id="path921" />
      <path
         style="fill:none;stroke:#ffffff;stroke-width:0.4;stroke-linecap:butt;stroke-linejoin:miter;stroke-miterlimit:4;stroke-dasharray:none;stroke-opacity:1"
         d="m 137.90379,69.978867 0.62104,30.505553"
         id="path923" />
      <path
         style="fill:none;stroke:#ffffff;stroke-width:0.4;stroke-linecap:butt;stroke-linejoin:miter;stroke-miterlimit:4;stroke-dasharray:none;stroke-opacity:1"
         d="M 151.57195,77.402612 138.18831,85.26491"
         id="path925" />
    </g>
  </g>
  <g
     inkscape:groupmode="layer"
     id="layer3"
     inkscape:label="capa de t"
     style="display:inline;opacity:1">
    <path
       style="fill:#696969;fill-opacity:1;stroke:#000000;stroke-width:0;stroke-linecap:butt;stroke-linejoin:miter;stroke-miterlimit:4;stroke-dasharray:none;stroke-opacity:1"
       d="m 230.5255,47.191697 -0.16646,-9.179264 7.83237,-4.875467 24.41288,13.294514 -7.96003,4.707743 0.14557,9.116816 -8.10663,-4.417986 0.26588,9.377749 -8.10203,-4.484369 -0.21103,-9.054763 z"
       id="path865" />
  </g>
  <g
     inkscape:groupmode="layer"
     id="layer4"
     inkscape:label="sombras"
     style="display:inline;opacity:1;mix-blend-mode:normal">
    <path
       style="fill:#8a8a8a;fill-opacity:1;stroke:#000000;stroke-width:0;stroke-linecap:butt;stroke-linejoin:miter;stroke-miterlimit:4;stroke-dasharray:none;stroke-opacity:1"
       d="m 230.35904,38.012433 7.83237,-4.875467 24.41288,13.294514 -7.96003,4.707743 z"
       id="path868" />
    <path
       style="fill:#2a2a2a;fill-opacity:1;stroke:#000000;stroke-width:0;stroke-linecap:butt;stroke-linejoin:miter;stroke-miterlimit:4;stroke-dasharray:none;stroke-opacity:1"
       d="m 262.60429,46.43148 0.32381,9.116151 -8.13823,4.708408 -0.14553,-9.116816 z"
       id="path870" />
    <path
       style="fill:#2a2a2a;fill-opacity:1;stroke:#000000;stroke-width:0;stroke-linecap:butt;stroke-linejoin:miter;stroke-miterlimit:4;stroke-dasharray:none;stroke-opacity:1"
       d="m 246.94913,65.215802 7.84074,-4.959763 -8.10659,-4.417986 z"
       id="path872" />
  </g>
</svg>
