<?xml version="1.0" encoding="UTF-8" standalone="no"?>
<svg
   xmlns:dc="http://purl.org/dc/elements/1.1/"
   xmlns:cc="http://creativecommons.org/ns#"
   xmlns:rdf="http://www.w3.org/1999/02/22-rdf-syntax-ns#"
   xmlns:svg="http://www.w3.org/2000/svg"
   xmlns="http://www.w3.org/2000/svg"
   xmlns:sodipodi="http://sodipodi.sourceforge.net/DTD/sodipodi-0.dtd"
   xmlns:inkscape="http://www.inkscape.org/namespaces/inkscape"
   width="297mm"
   height="100mm"
   viewBox="0 0 297 100"
   version="1.1"
   id="svg8"
   inkscape:version="1.0.2 (e86c870879, 2021-01-15)"
   sodipodi:docname="tony.svg"
   inkscape:export-filename="/home/toni-dev/toni.png"
   inkscape:export-xdpi="96"
   inkscape:export-ydpi="96">
  <defs
     id="defs2">
    <rect
       x="26.480473"
       y="55.716782"
       width="161.56688"
       height="40.260429"
       id="rect925" />
    <rect
       x="39.089615"
       y="70.147392"
       width="262.02325"
       height="108.9804"
       id="rect2053" />
    <rect
       x="31.491636"
       y="62.631798"
       width="244.13887"
       height="84.37809"
       id="rect2047" />
    <rect
       x="18.555244"
       y="58.809807"
       width="258.75351"
       height="60.202179"
       id="rect2041" />
    <rect
       x="40.331913"
       y="47.925808"
       width="229.2729"
       height="59.161087"
       id="rect2035" />
  </defs>
  <sodipodi:namedview
     id="base"
     pagecolor="#040404"
     bordercolor="#666666"
     borderopacity="1.0"
     inkscape:pageopacity="0"
     inkscape:pageshadow="2"
     inkscape:zoom="0.71"
     inkscape:cx="464.8466"
     inkscape:cy="191.15967"
     inkscape:document-units="mm"
     inkscape:current-layer="layer8"
     inkscape:document-rotation="0"
     showgrid="false"
     height="180mm"
     inkscape:window-width="1342"
     inkscape:window-height="676"
     inkscape:window-x="0"
     inkscape:window-y="27"
     inkscape:window-maximized="0" />
  <metadata
     id="metadata5">
    <rdf:RDF>
      <cc:Work
         rdf:about="">
        <dc:format>image/svg+xml</dc:format>
        <dc:type
           rdf:resource="http://purl.org/dc/dcmitype/StillImage" />
        <dc:title></dc:title>
      </cc:Work>
    </rdf:RDF>
  </metadata>
  <g
     inkscape:groupmode="layer"
     id="layer8"
     inkscape:label="background">
    <rect
       style="opacity:1;fill:#0f0f0f;fill-opacity:1;stroke:#ffffff;stroke-width:0;stroke-linecap:round;stroke-miterlimit:4;stroke-dasharray:none;stroke-opacity:1"
       id="rect2670"
       width="300.60303"
       height="101.19373"
       x="-0.1661744"
       y="-0.20010404" />
  </g>
  <g
     inkscape:groupmode="layer"
     id="layer7"
     inkscape:label="letras">
    <g
       aria-label="ANTONIO AVILES "
       transform="translate(-16.4914,-24.302306)"
       id="text2033"
       style="font-style:normal;font-variant:normal;font-weight:normal;font-stretch:normal;font-size:22.5778px;line-height:1.25;font-family:Poppins;-inkscape-font-specification:Poppins;white-space:pre;shape-inside:url(#rect2035);display:inline;fill:#f2f2f2;fill-opacity:1;stroke:none">
      <path
         d="m 49.098565,65.335383 h -4.903614 l -0.81139,2.345974 h -2.592918 l 4.427364,-12.329592 h 2.875141 l 4.427364,12.329592 h -2.610558 z m -0.670278,-1.975557 -1.781529,-5.150559 -1.781529,5.150559 z"
         style="font-size:17.6389px;fill:#f2f2f2;fill-opacity:1"
         id="path2205" />
      <path
         d="m 64.708985,67.681357 h -2.469446 l -5.591531,-8.449034 v 8.449034 H 54.178561 V 55.351765 h 2.469447 l 5.591531,8.466673 v -8.466673 h 2.469446 z"
         style="font-size:17.6389px;fill:#f2f2f2;fill-opacity:1"
         id="path2207" />
      <path
         d="M 75.521608,55.369404 V 57.3626 H 72.240773 V 67.681357 H 69.771327 V 57.3626 h -3.280836 v -1.993196 z"
         style="font-size:17.6389px;fill:#f2f2f2;fill-opacity:1"
         id="path2209" />
      <path
         d="m 83.035775,67.804829 q -1.728612,0 -3.175002,-0.811389 -1.44639,-0.81139 -2.293057,-2.240141 -0.846667,-1.446389 -0.846667,-3.263196 0,-1.799168 0.846667,-3.227919 0.846667,-1.44639 2.293057,-2.257779 1.44639,-0.81139 3.175002,-0.81139 1.746251,0 3.175002,0.81139 1.44639,0.811389 2.275419,2.257779 0.846667,1.428751 0.846667,3.227919 0,1.816807 -0.846667,3.263196 -0.829029,1.428751 -2.275419,2.240141 -1.446389,0.811389 -3.175002,0.811389 z m 0,-2.204862 q 1.111251,0 1.957918,-0.49389 0.846668,-0.511528 1.322918,-1.446389 0.47625,-0.934862 0.47625,-2.169585 0,-1.234723 -0.47625,-2.151946 -0.47625,-0.934862 -1.322918,-1.428751 -0.846667,-0.493889 -1.957918,-0.493889 -1.11125,0 -1.975557,0.493889 -0.846667,0.493889 -1.322917,1.428751 -0.47625,0.917223 -0.47625,2.151946 0,1.234723 0.47625,2.169585 0.47625,0.934861 1.322917,1.446389 0.864307,0.49389 1.975557,0.49389 z"
         style="font-size:17.6389px;fill:#f2f2f2;fill-opacity:1"
         id="path2211" />
      <path
         d="m 101.69773,67.681357 h -2.469446 l -5.591532,-8.449034 v 8.449034 H 91.167306 V 55.351765 h 2.469446 l 5.591532,8.466673 v -8.466673 h 2.469446 z"
         style="font-size:17.6389px;fill:#f2f2f2;fill-opacity:1"
         id="path2213" />
      <path
         d="m 106.60132,55.369404 v 12.311953 h -2.46944 V 55.369404 Z"
         style="font-size:17.6389px;fill:#f2f2f2;fill-opacity:1"
         id="path2215" />
      <path
         d="m 114.75049,67.804829 q -1.72861,0 -3.175,-0.811389 -1.44639,-0.81139 -2.29306,-2.240141 -0.84666,-1.446389 -0.84666,-3.263196 0,-1.799168 0.84666,-3.227919 0.84667,-1.44639 2.29306,-2.257779 1.44639,-0.81139 3.175,-0.81139 1.74625,0 3.17501,0.81139 1.44639,0.811389 2.27541,2.257779 0.84667,1.428751 0.84667,3.227919 0,1.816807 -0.84667,3.263196 -0.82902,1.428751 -2.27541,2.240141 -1.44639,0.811389 -3.17501,0.811389 z m 0,-2.204862 q 1.11125,0 1.95792,-0.49389 0.84667,-0.511528 1.32292,-1.446389 0.47625,-0.934862 0.47625,-2.169585 0,-1.234723 -0.47625,-2.151946 -0.47625,-0.934862 -1.32292,-1.428751 -0.84667,-0.493889 -1.95792,-0.493889 -1.11125,0 -1.97555,0.493889 -0.84667,0.493889 -1.32292,1.428751 -0.47625,0.917223 -0.47625,2.151946 0,1.234723 0.47625,2.169585 0.47625,0.934861 1.32292,1.446389 0.8643,0.49389 1.97555,0.49389 z"
         style="font-size:17.6389px;fill:#f2f2f2;fill-opacity:1"
         id="path2217" />
      <path
         d="m 134.62951,65.335383 h -4.90361 l -0.81139,2.345974 h -2.59292 l 4.42736,-12.329592 h 2.87514 l 4.42737,12.329592 h -2.61056 z m -0.67028,-1.975557 -1.78153,-5.150559 -1.78153,5.150559 z"
         style="font-size:17.6389px;fill:#f2f2f2;fill-opacity:1"
         id="path2219" />
      <path
         d="m 150.7691,55.369404 -4.51556,12.311953 h -2.99861 l -4.51556,-12.311953 h 2.64583 l 3.38667,9.78959 3.36903,-9.78959 z"
         style="font-size:17.6389px;fill:#f2f2f2;fill-opacity:1"
         id="path2221" />
      <path
         d="m 154.72018,55.369404 v 12.311953 h -2.46944 V 55.369404 Z"
         style="font-size:17.6389px;fill:#f2f2f2;fill-opacity:1"
         id="path2223" />
      <path
         d="m 159.6238,65.723439 h 4.05695 v 1.957918 h -6.52639 V 55.369404 h 2.46944 z"
         style="font-size:17.6389px;fill:#f2f2f2;fill-opacity:1"
         id="path2225" />
      <path
         d="m 167.72005,57.3626 v 3.086808 h 4.14514 v 1.957918 h -4.14514 v 3.263196 h 4.6743 v 2.010835 H 165.2506 V 55.351765 h 7.14375 V 57.3626 Z"
         style="font-size:17.6389px;fill:#f2f2f2;fill-opacity:1"
         id="path2227" />
      <path
         d="m 178.88546,67.804829 q -1.28764,0 -2.32833,-0.440972 -1.02306,-0.440973 -1.62278,-1.270001 -0.59972,-0.829028 -0.61736,-1.957918 h 2.64583 q 0.0529,0.758473 0.52917,1.199445 0.49389,0.440973 1.34056,0.440973 0.8643,0 1.35819,-0.405695 0.49389,-0.423334 0.49389,-1.093612 0,-0.546806 -0.33514,-0.899584 -0.33514,-0.352778 -0.84667,-0.546806 -0.49388,-0.211667 -1.37583,-0.458611 -1.19944,-0.352778 -1.95792,-0.687917 -0.74083,-0.352778 -1.28764,-1.040695 -0.52916,-0.705557 -0.52916,-1.869724 0,-1.093612 0.5468,-1.905001 0.54681,-0.81139 1.53459,-1.234723 0.98777,-0.440973 2.25778,-0.440973 1.905,0 3.0868,0.934862 1.19945,0.917223 1.32292,2.575279 h -2.71639 q -0.0353,-0.635 -0.54681,-1.040695 -0.49389,-0.423333 -1.32291,-0.423333 -0.7232,0 -1.16417,0.370417 -0.42333,0.370416 -0.42333,1.075973 0,0.493889 0.3175,0.829028 0.33513,0.3175 0.81139,0.529167 0.49388,0.194028 1.37583,0.458611 1.19944,0.352778 1.95792,0.705556 0.75847,0.352778 1.30528,1.058334 0.5468,0.705556 0.5468,1.852085 0,0.987778 -0.51153,1.834446 -0.51152,0.846667 -1.4993,1.358195 -0.98778,0.493889 -2.34598,0.493889 z"
         style="font-size:17.6389px;fill:#f2f2f2;fill-opacity:1"
         id="path2229" />
    </g>
    <text
       xml:space="preserve"
       id="text923"
       style="font-style:normal;font-weight:normal;font-size:10.5833px;line-height:1.25;font-family:sans-serif;white-space:pre;shape-inside:url(#rect925);fill:#666666;fill-opacity:1;stroke:none;"
       transform="translate(-2.886643,-4.0412974)"><tspan
         x="26.480469"
         y="66.95332"><tspan
           style="font-size:12.7px;fill:#666666">full stack developer</tspan></tspan></text>
  </g>
  <g
     inkscape:groupmode="layer"
     id="layer2"
     inkscape:label="logo"
     style="display:none;opacity:1">
    <path
       style="fill:none;stroke:#000000;stroke-width:0.264583px;stroke-linecap:butt;stroke-linejoin:miter;stroke-opacity:1"
       d="m 152.11257,92.62316 -0.54062,-15.220547 -40.76032,-22.196835 -13.077129,8.140195 0.27794,15.325918 13.541579,7.48822 0.35237,15.118039 13.52731,7.48721"
       id="path850"
       sodipodi:nodetypes="cccccccc" />
    <path
       style="fill:none;stroke:#000000;stroke-width:0.264583px;stroke-linecap:butt;stroke-linejoin:miter;stroke-opacity:1"
       d="m 110.28246,54.676611 c 0,0 0,0 0,0 z"
       id="path852" />
    <path
       style="fill:none;stroke:#000000;stroke-width:0.264583px;stroke-linecap:butt;stroke-linejoin:miter;stroke-opacity:1"
       d="m 152.11257,92.62316 -13.58774,7.86126 0.36458,15.80908"
       id="path854"
       sodipodi:nodetypes="ccc" />
    <path
       style="fill:none;stroke:#000000;stroke-width:0.264583px;stroke-linecap:butt;stroke-linejoin:miter;stroke-opacity:1"
       d="M 125.4337,108.76536 125.06957,85.6206"
       id="path856" />
    <path
       style="fill:none;stroke:#000000;stroke-width:0.264583px;stroke-linecap:butt;stroke-linejoin:miter;stroke-opacity:1"
       d="M 139.054,100.48442 98.012439,78.67189"
       id="path858"
       sodipodi:nodetypes="cc" />
    <path
       style="fill:none;stroke:#000000;stroke-width:0.264583px;stroke-linecap:butt;stroke-linejoin:miter;stroke-opacity:1"
       d="m 151.57195,77.402612 -13.29026,7.860162 0.24314,15.221646"
       id="path860"
       sodipodi:nodetypes="ccc" />
    <path
       style="fill:none;stroke:#000000;stroke-width:0.264583px;stroke-linecap:butt;stroke-linejoin:miter;stroke-opacity:1"
       d="m 125.4337,108.76536 13.6203,-8.28094"
       id="path862" />
  </g>
  <g
     inkscape:groupmode="layer"
     id="layer5"
     inkscape:label="lineart"
     style="mix-blend-mode:normal">
    <g
       id="g1382"
       transform="matrix(0.59893733,0,0,0.59893733,171.82219,0.07216291)">
      <path
         style="fill:none;stroke:#ffffff;stroke-width:0.4;stroke-linecap:butt;stroke-linejoin:miter;stroke-miterlimit:4;stroke-dasharray:none;stroke-opacity:1"
         d="m 124.38407,62.730305 13.17328,-8.118933 13.48741,7.545221 0.52719,15.246019 13.7278,7.239119 0.23698,15.369549 -13.07378,8.34824 0.41264,15.01996 -13.43058,7.83452 -13.67677,-7.3182 -13.06492,8.3468 -13.66963,-7.69767 -0.238368,-15.27703 -13.789189,-7.62394 -0.05925,-15.213428 13.065554,-7.758642 -0.47283,-15.345077 13.314523,-8.265125 z"
         id="path875" />
      <path
         style="fill:none;stroke:#ffffff;stroke-width:0.4;stroke-linecap:butt;stroke-linejoin:miter;stroke-miterlimit:4;stroke-dasharray:none;stroke-opacity:1"
         d="M 84.946883,86.430532 98.429555,93.829358 98.79532,109.2679"
         id="path877" />
      <path
         style="fill:none;stroke:#ffffff;stroke-width:0.4;stroke-linecap:butt;stroke-linejoin:miter;stroke-miterlimit:4;stroke-dasharray:none;stroke-opacity:1"
         d="m 112.70332,132.2426 -0.31513,-15.64432 13.04551,-7.83292 0.33454,15.13044"
         id="path879" />
      <path
         style="fill:none;stroke:#ffffff;stroke-width:0.4;stroke-linecap:butt;stroke-linejoin:miter;stroke-miterlimit:4;stroke-dasharray:none;stroke-opacity:1"
         d="m 111.90639,101.27815 -13.11107,7.98975 13.59287,7.33038"
         id="path881" />
      <path
         style="fill:none;stroke:#ffffff;stroke-width:0.4;stroke-linecap:butt;stroke-linejoin:miter;stroke-miterlimit:4;stroke-dasharray:none;stroke-opacity:1"
         d="M 98.429555,93.829356 111.55402,86.160109"
         id="path883" />
      <path
         style="fill:none;stroke:#ffffff;stroke-width:0.4;stroke-linecap:butt;stroke-linejoin:miter;stroke-miterlimit:4;stroke-dasharray:none;stroke-opacity:1"
         d="m 125.4337,108.76536 13.45571,7.52814 0.5556,14.9205"
         id="path885" />
      <path
         style="fill:none;stroke:#ffffff;stroke-width:0.4;stroke-linecap:butt;stroke-linejoin:miter;stroke-miterlimit:4;stroke-dasharray:none;stroke-opacity:1"
         d="m 138.88941,116.2935 13.57354,-7.93398 -0.35038,-15.73636"
         id="path887" />
      <path
         style="fill:none;stroke:#ffffff;stroke-width:0.4;stroke-linecap:butt;stroke-linejoin:miter;stroke-miterlimit:4;stroke-dasharray:none;stroke-opacity:1"
         d="m 152.11257,92.62316 13.18718,-7.981431"
         id="path889" />
      <path
         style="fill:none;stroke:#ffffff;stroke-width:0.4;stroke-linecap:butt;stroke-linejoin:miter;stroke-miterlimit:4;stroke-dasharray:none;stroke-opacity:1"
         d="m 151.04476,62.156593 -13.14097,7.822274"
         id="path891" />
      <path
         style="fill:none;stroke:#ffffff;stroke-width:0.4;stroke-linecap:butt;stroke-linejoin:miter;stroke-miterlimit:4;stroke-dasharray:none;stroke-opacity:1"
         d="m 152.46295,108.35952 -13.93812,-7.8751"
         id="path893" />
      <path
         style="fill:none;stroke:#ffffff;stroke-width:0.4;stroke-linecap:butt;stroke-linejoin:miter;stroke-miterlimit:4;stroke-dasharray:none;stroke-opacity:1"
         d="m 110.85413,55.061688 0.40203,15.67379 40.85641,21.887682"
         id="path909" />
      <path
         style="fill:none;stroke:#ffffff;stroke-width:0.4;stroke-linecap:butt;stroke-linejoin:miter;stroke-miterlimit:4;stroke-dasharray:none;stroke-opacity:1"
         d="m 124.38407,62.730305 0.71353,30.812269 -13.19121,7.735576 13.52731,7.48721 13.09113,-8.28094 -13.47723,-7.126441"
         id="path911" />
      <path
         style="fill:none;stroke:#ffffff;stroke-width:0.4;stroke-linecap:butt;stroke-linejoin:miter;stroke-miterlimit:4;stroke-dasharray:none;stroke-opacity:1"
         d="m 111.55402,86.160109 0.35237,15.118041"
         id="path913" />
      <path
         style="fill:none;stroke:#ffffff;stroke-width:0.4;stroke-linecap:butt;stroke-linejoin:miter;stroke-miterlimit:4;stroke-dasharray:none;stroke-opacity:1"
         d="m 98.012437,78.67189 13.541583,7.488219"
         id="path915" />
      <path
         style="fill:none;stroke:#ffffff;stroke-width:0.4;stroke-linecap:butt;stroke-linejoin:miter;stroke-miterlimit:4;stroke-dasharray:none;stroke-opacity:1"
         d="m 111.55402,86.160109 13.20917,-8.340254"
         id="path917" />
      <path
         style="fill:none;stroke:#ffffff;stroke-width:0.4;stroke-linecap:butt;stroke-linejoin:miter;stroke-miterlimit:4;stroke-dasharray:none;stroke-opacity:1"
         d="M 98.012437,78.67189 111.25616,70.735478"
         id="path919" />
      <path
         style="fill:none;stroke:#ffffff;stroke-width:0.4;stroke-linecap:butt;stroke-linejoin:miter;stroke-miterlimit:4;stroke-dasharray:none;stroke-opacity:1"
         d="m 124.38407,62.730305 13.51972,7.248562"
         id="path921" />
      <path
         style="fill:none;stroke:#ffffff;stroke-width:0.4;stroke-linecap:butt;stroke-linejoin:miter;stroke-miterlimit:4;stroke-dasharray:none;stroke-opacity:1"
         d="m 137.90379,69.978867 0.62104,30.505553"
         id="path923" />
      <path
         style="fill:none;stroke:#ffffff;stroke-width:0.4;stroke-linecap:butt;stroke-linejoin:miter;stroke-miterlimit:4;stroke-dasharray:none;stroke-opacity:1"
         d="M 151.57195,77.402612 138.18831,85.26491"
         id="path925" />
    </g>
  </g>
  <g
     inkscape:groupmode="layer"
     id="layer3"
     inkscape:label="capa de t"
     style="display:inline;opacity:1">
    <path
       style="fill:#696969;fill-opacity:1;stroke:#000000;stroke-width:0;stroke-linecap:butt;stroke-linejoin:miter;stroke-miterlimit:4;stroke-dasharray:none;stroke-opacity:1"
       d="m 229.99633,47.191697 -0.16646,-9.179264 8.36154,-4.875467 24.41288,13.294514 -7.96003,4.707743 0.14557,9.645983 -8.10663,-4.947153 0.26592,9.906911 -8.63124,-5.013531 -0.21103,-8.525596 z"
       id="path865"
       sodipodi:nodetypes="ccccccccccc" />
  </g>
  <g
     inkscape:groupmode="layer"
     id="layer4"
     inkscape:label="sombras"
     style="display:inline;opacity:1;mix-blend-mode:normal">
    <path
       style="fill:#8a8a8a;fill-opacity:1;stroke:#000000;stroke-width:0;stroke-linecap:butt;stroke-linejoin:miter;stroke-miterlimit:4;stroke-dasharray:none;stroke-opacity:1"
       d="m 229.82987,38.012433 8.36154,-5.404634 24.41288,13.823681 -7.96003,4.707743 z"
       id="path868"
       sodipodi:nodetypes="ccccc" />
    <path
       style="fill:#2a2a2a;fill-opacity:1;stroke:#000000;stroke-width:0;stroke-linecap:butt;stroke-linejoin:miter;stroke-miterlimit:4;stroke-dasharray:none;stroke-opacity:1"
       d="m 262.60429,46.43148 0.32381,9.116151 -8.13823,5.237575 -0.14553,-9.645983 z"
       id="path870"
       sodipodi:nodetypes="ccccc" />
    <path
       style="fill:#2a2a2a;fill-opacity:1;stroke:#000000;stroke-width:0;stroke-linecap:butt;stroke-linejoin:miter;stroke-miterlimit:4;stroke-dasharray:none;stroke-opacity:1"
       d="m 246.94912,65.744964 7.84075,-4.959758 -8.10659,-4.947153 z"
       id="path872"
       sodipodi:nodetypes="cccc" />
  </g>
</svg>
